solid Created by Gmsh
facet normal 0 -0 -1
  outer loop
    vertex 238 152 0
    vertex 239 83 0
    vertex 223.2323385025109 106.8374186283284 0
  endloop
endfacet
facet normal 0 -0 -1
  outer loop
    vertex 51 701 0
    vertex 60 681 0
    vertex 35.10234656262663 683.8586787740217 0
  endloop
endfacet
facet normal 0 0 -1
  outer loop
    vertex 156.7433651465552 446.4465030506657 0
    vertex 193 441 0
    vertex 186.7764983391331 423.3962233087828 0
  endloop
endfacet
facet normal 0 -0 -1
  outer loop
    vertex 219 303 0
    vertex 223 236.5000000000002 0
    vertex 190.9651545030297 283.395911101464 0
  endloop
endfacet
facet normal 0 0 -1
  outer loop
    vertex 62.26722653203662 467.3499999986412 0
    vertex 75.75848907994767 517.9542430602889 0
    vertex 104.3984114691058 496.6387474089907 0
  endloop
endfacet
facet normal 0 0 -1
  outer loop
    vertex 158.2191222164683 350.0245111135682 0
    vertex 154.7466947747783 382.1697675259647 0
    vertex 177.2052323612562 367.5403875344158 0
  endloop
endfacet
facet normal 0 0 -1
  outer loop
    vertex 159 491 0
    vertex 131.1475048006155 495.6456095639357 0
    vertex 146.5583341928721 500.0163227693822 0
  endloop
endfacet
facet normal -0 0 -1
  outer loop
    vertex 129.7354623928913 268.4171644015099 0
    vertex 102.594345931277 225.7992930951035 0
    vertex 92.55962316024568 286.1459662868183 0
  endloop
endfacet
facet normal 0 -0 -1
  outer loop
    vertex 156.7433651465552 446.4465030506657 0
    vertex 186.7764983391331 423.3962233087828 0
    vertex 152.9056818707451 414.9970497192087 0
  endloop
endfacet
facet normal 0 0 -1
  outer loop
    vertex 62.26722653179044 179.7499999992392 0
    vertex 51.24125834624287 252.0421277459997 0
    vertex 102.594345931277 225.7992930951035 0
  endloop
endfacet
facet normal 0 0 -1
  outer loop
    vertex 62.26722653179044 179.7499999992392 0
    vertex 0 215.6999999990598 0
    vertex 51.24125834624287 252.0421277459997 0
  endloop
endfacet
facet normal 0 0 -1
  outer loop
    vertex 158.2191222164683 350.0245111135682 0
    vertex 177.2052323612562 367.5403875344158 0
    vertex 183.5027096051627 349.6729595754933 0
  endloop
endfacet
facet normal 0 0 -1
  outer loop
    vertex 132.5296321512672 337.7155999853696 0
    vertex 127.8690415975471 309.2121214518766 0
    vertex 94.45726148677051 337.4971280839574 0
  endloop
endfacet
facet normal 0 0 -1
  outer loop
    vertex 159 491 0
    vertex 156.7433651465552 446.4465030506657 0
    vertex 128.2024447591753 469.8927996369576 0
  endloop
endfacet
facet normal 0 0 -1
  outer loop
    vertex 62.26722653203662 467.3499999986412 0
    vertex 0 503.2999999986038 0
    vertex 45.1860512927295 509.8208351485006 0
  endloop
endfacet
facet normal 0 0 -1
  outer loop
    vertex 195.3918644552384 326.5627339445287 0
    vertex 212.0260649650059 336.7218069939676 0
    vertex 205.4137405469027 323.8792837884423 0
  endloop
endfacet
facet normal -0 0 -1
  outer loop
    vertex 159 491 0
    vertex 128.2024447591753 469.8927996369576 0
    vertex 131.1475048006155 495.6456095639357 0
  endloop
endfacet
facet normal 0 -0 -1
  outer loop
    vertex 36.91200661004692 654.0282960085755 0
    vertex 53.86505866193902 625.8805092141345 0
    vertex 31.62421269378248 606.0534369503886 0
  endloop
endfacet
facet normal 0 -0 -1
  outer loop
    vertex 100.5 592.5 0
    vertex 122 552 0
    vertex 87.82936146527449 557.8158477196721 0
  endloop
endfacet
facet normal 0 -0 -1
  outer loop
    vertex 201 436 0
    vertex 208 419 0
    vertex 186.7764983391331 423.3962233087828 0
  endloop
endfacet
facet normal 0 -0 -1
  outer loop
    vertex 79 633 0
    vertex 100.5 592.5 0
    vertex 65.42744993055267 594.5424901789011 0
  endloop
endfacet
facet normal 0 0 -1
  outer loop
    vertex 177.9122747909817 332.8328501792791 0
    vertex 158.2191222164683 350.0245111135682 0
    vertex 183.5027096051627 349.6729595754933 0
  endloop
endfacet
facet normal -0 0 -1
  outer loop
    vertex 212.0260649650059 336.7218069939676 0
    vertex 195.3918644552384 326.5627339445287 0
    vertex 192.6371206487431 338.2856729107368 0
  endloop
endfacet
facet normal 0 0 -1
  outer loop
    vertex 177.2052323612562 367.5403875344158 0
    vertex 154.7466947747783 382.1697675259647 0
    vertex 180.0898295509193 387.5981044662797 0
  endloop
endfacet
facet normal 0 0 -1
  outer loop
    vertex 87.82936146527449 557.8158477196721 0
    vertex 122 552 0
    vertex 108.639509268656 531.0767120337567 0
  endloop
endfacet
facet normal 0 -0 -1
  outer loop
    vertex 208 419 0
    vertex 217 407 0
    vertex 198.698063190601 409.7532617057603 0
  endloop
endfacet
facet normal 0 0 -1
  outer loop
    vertex 177.2052323612562 367.5403875344158 0
    vertex 180.0898295509193 387.5981044662797 0
    vertex 193.9180678707161 375.2585664858062 0
  endloop
endfacet
facet normal 0 -0 -1
  outer loop
    vertex 198.883164588243 348.0245276542419 0
    vertex 212.0260649650059 336.7218069939676 0
    vertex 192.6371206487431 338.2856729107368 0
  endloop
endfacet
facet normal 0 -0 -1
  outer loop
    vertex 104.3984114691058 496.6387474089907 0
    vertex 128.2024447591753 469.8927996369576 0
    vertex 94.08028001902511 450.4652264009692 0
  endloop
endfacet
facet normal 0 -0 -1
  outer loop
    vertex 65.42744993055267 594.5424901789011 0
    vertex 87.82936146527449 557.8158477196721 0
    vertex 42.71848955893375 550.6790975364684 0
  endloop
endfacet
facet normal -0 0 -1
  outer loop
    vertex 127.8690415975471 309.2121214518766 0
    vertex 92.55962316024568 286.1459662868183 0
    vertex 94.45726148677051 337.4971280839574 0
  endloop
endfacet
facet normal 0 0 -1
  outer loop
    vertex 0 431.3999999986783 0
    vertex 0 503.2999999986038 0
    vertex 62.26722653203662 467.3499999986412 0
  endloop
endfacet
facet normal 0 0 -1
  outer loop
    vertex 190.9651545030297 283.395911101464 0
    vertex 181.127291588756 312.2232026918431 0
    vertex 200.6585496824374 314.8152938165022 0
  endloop
endfacet
facet normal 0 0 -1
  outer loop
    vertex 0 287.5999999988274 0
    vertex 49.07603125693605 317.7317392210754 0
    vertex 51.24125834624287 252.0421277459997 0
  endloop
endfacet
facet normal 0 0 -1
  outer loop
    vertex 223 61 0
    vertex 227 82 0
    vertex 239 83 0
  endloop
endfacet
facet normal 0 0 -1
  outer loop
    vertex 102.594345931277 225.7992930951035 0
    vertex 51.24125834624287 252.0421277459997 0
    vertex 92.55962316024568 286.1459662868183 0
  endloop
endfacet
facet normal 0 0 -1
  outer loop
    vertex 124.3099564285436 363.7684368790499 0
    vertex 154.7466947747783 382.1697675259647 0
    vertex 158.2191222164683 350.0245111135682 0
  endloop
endfacet
facet normal 0 0 -1
  outer loop
    vertex 0 287.5999999988274 0
    vertex 0 359.4999999987528 0
    vertex 49.07603125693605 317.7317392210754 0
  endloop
endfacet
facet normal -0 0 -1
  outer loop
    vertex 217 407 0
    vertex 203.8438886295301 399.5847903222481 0
    vertex 198.698063190601 409.7532617057603 0
  endloop
endfacet
facet normal 0 0 -1
  outer loop
    vertex 62.26722653203662 467.3499999986412 0
    vertex 104.3984114691058 496.6387474089907 0
    vertex 94.08028001902511 450.4652264009692 0
  endloop
endfacet
facet normal 0 0 -1
  outer loop
    vertex 144 515 0
    vertex 161 500 0
    vertex 146.5583341928721 500.0163227693822 0
  endloop
endfacet
facet normal -0 0 -1
  outer loop
    vertex 239 83 0
    vertex 227 82 0
    vertex 223.2323385025109 106.8374186283284 0
  endloop
endfacet
facet normal 0 0 -1
  outer loop
    vertex 176.1569027828103 125.4483872468192 0
    vertex 200.1565874946978 142.5863407816875 0
    vertex 203.2607566398519 121.717787617851 0
  endloop
endfacet
facet normal 0 0 -1
  outer loop
    vertex 224 83 0
    vertex 206.0000000000719 41.50000000016583 0
    vertex 182.5792071002877 72.00117135438393 0
  endloop
endfacet
facet normal -0 0 -1
  outer loop
    vertex 232 319 0
    vertex 213 316 0
    vertex 212.0260649650059 336.7218069939676 0
  endloop
endfacet
facet normal 0 0 -1
  outer loop
    vertex 195.3918644552384 326.5627339445287 0
    vertex 177.9122747909817 332.8328501792791 0
    vertex 192.6371206487431 338.2856729107368 0
  endloop
endfacet
facet normal 0 0 -1
  outer loop
    vertex 0 359.4999999987528 0
    vertex 51.01396870579627 414.941214304436 0
    vertex 53.58000396614776 363.4650011370476 0
  endloop
endfacet
facet normal -0 0 -1
  outer loop
    vertex 65.42744993055267 594.5424901789011 0
    vertex 42.71848955893375 550.6790975364684 0
    vertex 31.62421269378248 606.0534369503886 0
  endloop
endfacet
facet normal 0 0 -1
  outer loop
    vertex 213 316 0
    vertex 212 312 0
    vertex 200.6585496824374 314.8152938165022 0
  endloop
endfacet
facet normal 0 0 -1
  outer loop
    vertex 154.7466947747783 382.1697675259647 0
    vertex 152.9056818707451 414.9970497192087 0
    vertex 171.5105095213792 402.599076284515 0
  endloop
endfacet
facet normal 0 0 -1
  outer loop
    vertex 0 143.7999999994186 0
    vertex 62.26722653179044 179.7499999992392 0
    vertex 56.21712441097836 102.7660974876297 0
  endloop
endfacet
facet normal 0 0 -1
  outer loop
    vertex 122.7684060100015 397.5546094265704 0
    vertex 152.9056818707451 414.9970497192087 0
    vertex 154.7466947747783 382.1697675259647 0
  endloop
endfacet
facet normal 0 0 -1
  outer loop
    vertex 0 143.7999999994186 0
    vertex 0 215.6999999990598 0
    vertex 62.26722653179044 179.7499999992392 0
  endloop
endfacet
facet normal 0 0 -1
  outer loop
    vertex 102.594345931277 225.7992930951035 0
    vertex 129.7354623928913 268.4171644015099 0
    vertex 139.9163644177771 236.4354072605524 0
  endloop
endfacet
facet normal 0 0 -1
  outer loop
    vertex 224 83 0
    vertex 197.8534219394024 100.4157205396234 0
    vertex 223.2323385025109 106.8374186283284 0
  endloop
endfacet
facet normal 0 -0 -1
  outer loop
    vertex 132 536 0
    vertex 144 515 0
    vertex 125.0963711295794 516.0472803961196 0
  endloop
endfacet
facet normal 0 0 -1
  outer loop
    vertex 51.24125834624287 252.0421277459997 0
    vertex 49.07603125693605 317.7317392210754 0
    vertex 92.55962316024568 286.1459662868183 0
  endloop
endfacet
facet normal -0 0 -1
  outer loop
    vertex 214.906111682857 355.6231119814377 0
    vertex 198.883164588243 348.0245276542419 0
    vertex 196.1593430252838 361.3298080607181 0
  endloop
endfacet
facet normal 0 -0 -1
  outer loop
    vertex 222 154 0
    vertex 238 152 0
    vertex 218.9045324798383 133.3010708927964 0
  endloop
endfacet
facet normal 0 0 -1
  outer loop
    vertex 188 0 0
    vertex 125.3333333334203 0 0
    vertex 165.846366482353 36.79290926219827 0
  endloop
endfacet
facet normal 0 0 -1
  outer loop
    vertex 197.8534219394024 100.4157205396234 0
    vertex 176.1569027828103 125.4483872468192 0
    vertex 203.2607566398519 121.717787617851 0
  endloop
endfacet
facet normal -0 -0 -1
  outer loop
    vertex 76 651 0
    vertex 79 633 0
    vertex 58.73291041473118 651.5467602927514 0
  endloop
endfacet
facet normal 0 0 -1
  outer loop
    vertex 87.44181428902158 53.04724785594914 0
    vertex 56.21712441097836 102.7660974876297 0
    vertex 103.6632983639453 92.86905963138094 0
  endloop
endfacet
facet normal 0 0 -1
  outer loop
    vertex 0 431.3999999986783 0
    vertex 62.26722653203662 467.3499999986412 0
    vertex 51.01396870579627 414.941214304436 0
  endloop
endfacet
facet normal 0 0 -1
  outer loop
    vertex 203.8438886295301 399.5847903222481 0
    vertex 217 407 0
    vertex 215.2442859475687 396.3907412942444 0
  endloop
endfacet
facet normal 0 0 -1
  outer loop
    vertex 49.07603125693605 317.7317392210754 0
    vertex 0 359.4999999987528 0
    vertex 53.58000396614776 363.4650011370476 0
  endloop
endfacet
facet normal -0 0 -1
  outer loop
    vertex 165.846366482353 36.79290926219827 0
    vertex 125.3333333334203 0 0
    vertex 138.2872539462561 66.11377153806505 0
  endloop
endfacet
facet normal -0 0 -1
  outer loop
    vertex 209.1332551607447 385.9781748547298 0
    vertex 193.9180678707161 375.2585664858062 0
    vertex 195.0446680589918 390.0519042079278 0
  endloop
endfacet
facet normal 0 0 -1
  outer loop
    vertex 75.75848907994767 517.9542430602889 0
    vertex 62.26722653203662 467.3499999986412 0
    vertex 45.1860512927295 509.8208351485006 0
  endloop
endfacet
facet normal 0 0 -1
  outer loop
    vertex 0 215.6999999990598 0
    vertex 0 287.5999999988274 0
    vertex 51.24125834624287 252.0421277459997 0
  endloop
endfacet
facet normal 0 0 -1
  outer loop
    vertex 152.9056818707451 414.9970497192087 0
    vertex 186.7764983391331 423.3962233087828 0
    vertex 171.5105095213792 402.599076284515 0
  endloop
endfacet
facet normal 0 0 -1
  outer loop
    vertex 200.1565874946978 142.5863407816875 0
    vertex 222 154 0
    vertex 218.9045324798383 133.3010708927964 0
  endloop
endfacet
facet normal -0 0 -1
  outer loop
    vertex 182.5792071002877 72.00117135438393 0
    vertex 138.2872539462561 66.11377153806505 0
    vertex 166.2886388634875 94.85499086906601 0
  endloop
endfacet
facet normal 0 0 -1
  outer loop
    vertex 0 71.89999999974205 0
    vertex 0 143.7999999994186 0
    vertex 56.21712441097836 102.7660974876297 0
  endloop
endfacet
facet normal 0 0 -1
  outer loop
    vertex 125.3333333334203 0 0
    vertex 87.44181428902158 53.04724785594914 0
    vertex 138.2872539462561 66.11377153806505 0
  endloop
endfacet
facet normal 0 0 -1
  outer loop
    vertex 125.3333333334203 0 0
    vertex 62.66666666660376 0 0
    vertex 87.44181428902158 53.04724785594914 0
  endloop
endfacet
facet normal 0 0 -1
  outer loop
    vertex 190.9651545030297 283.395911101464 0
    vertex 172.7290536545249 234.0932521287166 0
    vertex 158.5125831133265 263.0676441470323 0
  endloop
endfacet
facet normal 0 0 -1
  outer loop
    vertex 0 359.4999999987528 0
    vertex 0 431.3999999986783 0
    vertex 51.01396870579627 414.941214304436 0
  endloop
endfacet
facet normal 0 0 -1
  outer loop
    vertex 56.21712441097836 102.7660974876297 0
    vertex 62.26722653179044 179.7499999992392 0
    vertex 99.80389062478962 132.1222776088222 0
  endloop
endfacet
facet normal 0 -0 -1
  outer loop
    vertex 56.21712441097836 102.7660974876297 0
    vertex 87.44181428902158 53.04724785594914 0
    vertex 43.97777476790426 46.97065363784688 0
  endloop
endfacet
facet normal -0 0 -1
  outer loop
    vertex 224 83 0
    vertex 182.5792071002877 72.00117135438393 0
    vertex 197.8534219394024 100.4157205396234 0
  endloop
endfacet
facet normal 0 0 -1
  outer loop
    vertex 193.9180678707161 375.2585664858062 0
    vertex 209.1332551607447 385.9781748547298 0
    vertex 208.7354144898231 372.8552641116341 0
  endloop
endfacet
facet normal -0 0 -1
  outer loop
    vertex 100.5 592.5 0
    vertex 87.82936146527449 557.8158477196721 0
    vertex 65.42744993055267 594.5424901789011 0
  endloop
endfacet
facet normal 0 0 -1
  outer loop
    vertex 122.7684060100015 397.5546094265704 0
    vertex 154.7466947747783 382.1697675259647 0
    vertex 124.3099564285436 363.7684368790499 0
  endloop
endfacet
facet normal 0 -0 -1
  outer loop
    vertex 190.9651545030297 283.395911101464 0
    vertex 223 236.5000000000002 0
    vertex 172.7290536545249 234.0932521287166 0
  endloop
endfacet
facet normal 0 0 -1
  outer loop
    vertex 172.7290536545249 234.0932521287166 0
    vertex 223 236.5000000000002 0
    vertex 190.6893197732138 193.5620049977169 0
  endloop
endfacet
facet normal 0 0 -1
  outer loop
    vertex 198.883164588243 348.0245276542419 0
    vertex 214.906111682857 355.6231119814377 0
    vertex 212.0260649650059 336.7218069939676 0
  endloop
endfacet
facet normal 0 0 -1
  outer loop
    vertex 200.1565874946978 142.5863407816875 0
    vertex 218.9045324798383 133.3010708927964 0
    vertex 203.2607566398519 121.717787617851 0
  endloop
endfacet
facet normal -0 0 -1
  outer loop
    vertex 156.7433651465552 446.4465030506657 0
    vertex 123.242792486524 433.292281761605 0
    vertex 128.2024447591753 469.8927996369576 0
  endloop
endfacet
facet normal 0 0 -1
  outer loop
    vertex 79 633 0
    vertex 65.42744993055267 594.5424901789011 0
    vertex 53.86505866193902 625.8805092141345 0
  endloop
endfacet
facet normal 0 0 -1
  outer loop
    vertex 0 503.2999999986038 0
    vertex 0 575.1999999990134 0
    vertex 42.71848955893375 550.6790975364684 0
  endloop
endfacet
facet normal -0 0 -1
  outer loop
    vertex 96.00697617245918 415.8945727586129 0
    vertex 51.01396870579627 414.941214304436 0
    vertex 94.08028001902511 450.4652264009692 0
  endloop
endfacet
facet normal 0 0 -1
  outer loop
    vertex 51.01396870579627 414.941214304436 0
    vertex 62.26722653203662 467.3499999986412 0
    vertex 94.08028001902511 450.4652264009692 0
  endloop
endfacet
facet normal 0 -0 -1
  outer loop
    vertex 87.82936146527449 557.8158477196721 0
    vertex 108.639509268656 531.0767120337567 0
    vertex 75.75848907994767 517.9542430602889 0
  endloop
endfacet
facet normal 0 0 -1
  outer loop
    vertex 0 575.1999999990134 0
    vertex 0 647.0999999995068 0
    vertex 31.62421269378248 606.0534369503886 0
  endloop
endfacet
facet normal 0 0 -1
  outer loop
    vertex 181.127291588756 312.2232026918431 0
    vertex 177.9122747909817 332.8328501792791 0
    vertex 195.3918644552384 326.5627339445287 0
  endloop
endfacet
facet normal 0 0 -1
  outer loop
    vertex 182.5792071002877 72.00117135438393 0
    vertex 165.846366482353 36.79290926219827 0
    vertex 138.2872539462561 66.11377153806505 0
  endloop
endfacet
facet normal 0 0 -1
  outer loop
    vertex 0 71.89999999974205 0
    vertex 56.21712441097836 102.7660974876297 0
    vertex 43.97777476790426 46.97065363784688 0
  endloop
endfacet
facet normal 0 0 -1
  outer loop
    vertex 92.55962316024568 286.1459662868183 0
    vertex 49.07603125693605 317.7317392210754 0
    vertex 94.45726148677051 337.4971280839574 0
  endloop
endfacet
facet normal 0 -0 -1
  outer loop
    vertex 60 681 0
    vertex 64 668 0
    vertex 49.80441932833953 667.8824554100701 0
  endloop
endfacet
facet normal 0 -0 -1
  outer loop
    vertex 158.2191222164683 350.0245111135682 0
    vertex 177.9122747909817 332.8328501792791 0
    vertex 157.4084410771972 321.8995786770081 0
  endloop
endfacet
facet normal 0 0 -1
  outer loop
    vertex 75.75848907994767 517.9542430602889 0
    vertex 108.639509268656 531.0767120337567 0
    vertex 104.3984114691058 496.6387474089907 0
  endloop
endfacet
facet normal 0 -0 -1
  outer loop
    vertex 186.7764983391331 423.3962233087828 0
    vertex 188.2382990830488 401.8398849105751 0
    vertex 171.5105095213792 402.599076284515 0
  endloop
endfacet
facet normal 0 0 -1
  outer loop
    vertex 0 0 0
    vertex 0 71.89999999974205 0
    vertex 43.97777476790426 46.97065363784688 0
  endloop
endfacet
facet normal 0 -0 -1
  outer loop
    vertex 208.7354144898231 372.8552641116341 0
    vertex 214.906111682857 355.6231119814377 0
    vertex 196.1593430252838 361.3298080607181 0
  endloop
endfacet
facet normal 0 0 -1
  outer loop
    vertex 0 647.0999999995068 0
    vertex 36.91200661004692 654.0282960085755 0
    vertex 31.62421269378248 606.0534369503886 0
  endloop
endfacet
facet normal 0 0 -1
  outer loop
    vertex 209.1332551607447 385.9781748547298 0
    vertex 203.8438886295301 399.5847903222481 0
    vertex 215.2442859475687 396.3907412942444 0
  endloop
endfacet
facet normal 0 -0 -1
  outer loop
    vertex 108.639509268656 531.0767120337567 0
    vertex 125.0963711295794 516.0472803961196 0
    vertex 104.3984114691058 496.6387474089907 0
  endloop
endfacet
facet normal 0 -0 -1
  outer loop
    vertex 123.242792486524 433.292281761605 0
    vertex 152.9056818707451 414.9970497192087 0
    vertex 122.7684060100015 397.5546094265704 0
  endloop
endfacet
facet normal 0 0 -1
  outer loop
    vertex 156.7433651465552 446.4465030506657 0
    vertex 152.9056818707451 414.9970497192087 0
    vertex 123.242792486524 433.292281761605 0
  endloop
endfacet
facet normal 0 0 -1
  outer loop
    vertex 144.507419955235 194.8459696872252 0
    vertex 172.7290536545249 234.0932521287166 0
    vertex 190.6893197732138 193.5620049977169 0
  endloop
endfacet
facet normal 0 0 -1
  outer loop
    vertex 206.0000000000719 41.50000000016583 0
    vertex 188 0 0
    vertex 165.846366482353 36.79290926219827 0
  endloop
endfacet
facet normal 0 0 -1
  outer loop
    vertex 62.66666666660376 0 0
    vertex 0 0 0
    vertex 43.97777476790426 46.97065363784688 0
  endloop
endfacet
facet normal 0 0 -1
  outer loop
    vertex 99.80389062478962 132.1222776088222 0
    vertex 62.26722653179044 179.7499999992392 0
    vertex 108.9775505324085 175.1166008409382 0
  endloop
endfacet
facet normal 0 0 -1
  outer loop
    vertex 0 503.2999999986038 0
    vertex 42.71848955893375 550.6790975364684 0
    vertex 45.1860512927295 509.8208351485006 0
  endloop
endfacet
facet normal -0 0 -1
  outer loop
    vertex 180.0898295509193 387.5981044662797 0
    vertex 154.7466947747783 382.1697675259647 0
    vertex 171.5105095213792 402.599076284515 0
  endloop
endfacet
facet normal -0 0 -1
  outer loop
    vertex 231 393 0
    vertex 209.1332551607447 385.9781748547298 0
    vertex 215.2442859475687 396.3907412942444 0
  endloop
endfacet
facet normal 0 -0 -1
  outer loop
    vertex 205.4137405469027 323.8792837884423 0
    vertex 213 316 0
    vertex 200.6585496824374 314.8152938165022 0
  endloop
endfacet
facet normal 0 -0 -1
  outer loop
    vertex 64 668 0
    vertex 76 651 0
    vertex 58.73291041473118 651.5467602927514 0
  endloop
endfacet
facet normal 0 0 -1
  outer loop
    vertex 186.7764983391331 423.3962233087828 0
    vertex 208 419 0
    vertex 198.698063190601 409.7532617057603 0
  endloop
endfacet
facet normal 0 -0 -1
  outer loop
    vertex 89.2003253121766 381.2271391759119 0
    vertex 94.45726148677051 337.4971280839574 0
    vertex 53.58000396614776 363.4650011370476 0
  endloop
endfacet
facet normal 0 0 -1
  outer loop
    vertex 144.507419955235 194.8459696872252 0
    vertex 102.594345931277 225.7992930951035 0
    vertex 139.9163644177771 236.4354072605524 0
  endloop
endfacet
facet normal 0 0 -1
  outer loop
    vertex 64 668 0
    vertex 58.73291041473118 651.5467602927514 0
    vertex 49.80441932833953 667.8824554100701 0
  endloop
endfacet
facet normal 0 0 -1
  outer loop
    vertex 158.2191222164683 350.0245111135682 0
    vertex 157.4084410771972 321.8995786770081 0
    vertex 132.5296321512672 337.7155999853696 0
  endloop
endfacet
facet normal 0 -0 -1
  outer loop
    vertex 122 552 0
    vertex 132 536 0
    vertex 108.639509268656 531.0767120337567 0
  endloop
endfacet
facet normal 0 0 -1
  outer loop
    vertex 102.594345931277 225.7992930951035 0
    vertex 144.507419955235 194.8459696872252 0
    vertex 108.9775505324085 175.1166008409382 0
  endloop
endfacet
facet normal 0 0 -1
  outer loop
    vertex 181.127291588756 312.2232026918431 0
    vertex 195.3918644552384 326.5627339445287 0
    vertex 200.6585496824374 314.8152938165022 0
  endloop
endfacet
facet normal 0 -0 -1
  outer loop
    vertex 203.8438886295301 399.5847903222481 0
    vertex 209.1332551607447 385.9781748547298 0
    vertex 195.0446680589918 390.0519042079278 0
  endloop
endfacet
facet normal -0 0 -1
  outer loop
    vertex 172.7290536545249 234.0932521287166 0
    vertex 144.507419955235 194.8459696872252 0
    vertex 139.9163644177771 236.4354072605524 0
  endloop
endfacet
facet normal -0 0 -1
  outer loop
    vertex 94.45726148677051 337.4971280839574 0
    vertex 49.07603125693605 317.7317392210754 0
    vertex 53.58000396614776 363.4650011370476 0
  endloop
endfacet
facet normal 0 0 -1
  outer loop
    vertex 128.2024447591753 469.8927996369576 0
    vertex 123.242792486524 433.292281761605 0
    vertex 94.08028001902511 450.4652264009692 0
  endloop
endfacet
facet normal 0 0 -1
  outer loop
    vertex 89.2003253121766 381.2271391759119 0
    vertex 51.01396870579627 414.941214304436 0
    vertex 96.00697617245918 415.8945727586129 0
  endloop
endfacet
facet normal 0 0 -1
  outer loop
    vertex 177.2052323612562 367.5403875344158 0
    vertex 193.9180678707161 375.2585664858062 0
    vertex 196.1593430252838 361.3298080607181 0
  endloop
endfacet
facet normal 0 0 -1
  outer loop
    vertex 51.01396870579627 414.941214304436 0
    vertex 89.2003253121766 381.2271391759119 0
    vertex 53.58000396614776 363.4650011370476 0
  endloop
endfacet
facet normal 0 -0 -1
  outer loop
    vertex 140.5161129670843 148.1297654318716 0
    vertex 176.1569027828103 125.4483872468192 0
    vertex 136.5664085486811 110.2959036664385 0
  endloop
endfacet
facet normal 0 0 -1
  outer loop
    vertex 157.4084410771972 321.8995786770081 0
    vertex 177.9122747909817 332.8328501792791 0
    vertex 181.127291588756 312.2232026918431 0
  endloop
endfacet
facet normal 0 -0 -1
  outer loop
    vertex 217 407 0
    vertex 231 393 0
    vertex 215.2442859475687 396.3907412942444 0
  endloop
endfacet
facet normal 0 0 -1
  outer loop
    vertex 87.44181428902158 53.04724785594914 0
    vertex 62.66666666660376 0 0
    vertex 43.97777476790426 46.97065363784688 0
  endloop
endfacet
facet normal -0 0 -1
  outer loop
    vertex 131.1475048006155 495.6456095639357 0
    vertex 128.2024447591753 469.8927996369576 0
    vertex 104.3984114691058 496.6387474089907 0
  endloop
endfacet
facet normal 0 -0 -1
  outer loop
    vertex 58.73291041473118 651.5467602927514 0
    vertex 79 633 0
    vertex 53.86505866193902 625.8805092141345 0
  endloop
endfacet
facet normal 0 -0 -1
  outer loop
    vertex 157.4084410771972 321.8995786770081 0
    vertex 159.2168805984093 292.9964858429186 0
    vertex 127.8690415975471 309.2121214518766 0
  endloop
endfacet
facet normal 0 0 -1
  outer loop
    vertex 62.26722653179044 179.7499999992392 0
    vertex 102.594345931277 225.7992930951035 0
    vertex 108.9775505324085 175.1166008409382 0
  endloop
endfacet
facet normal 0 0 -1
  outer loop
    vertex 124.3099564285436 363.7684368790499 0
    vertex 158.2191222164683 350.0245111135682 0
    vertex 132.5296321512672 337.7155999853696 0
  endloop
endfacet
facet normal 0 0 -1
  outer loop
    vertex 138.2872539462561 66.11377153806505 0
    vertex 136.5664085486811 110.2959036664385 0
    vertex 166.2886388634875 94.85499086906601 0
  endloop
endfacet
facet normal 0 -0 -1
  outer loop
    vertex 218.9045324798383 133.3010708927964 0
    vertex 223.2323385025109 106.8374186283284 0
    vertex 203.2607566398519 121.717787617851 0
  endloop
endfacet
facet normal 0 -0 -1
  outer loop
    vertex 122.7684060100015 397.5546094265704 0
    vertex 124.3099564285436 363.7684368790499 0
    vertex 89.2003253121766 381.2271391759119 0
  endloop
endfacet
facet normal -0 0 -1
  outer loop
    vertex 201.4921201058469 164.7229836620952 0
    vertex 175.4073249236761 161.2098245082642 0
    vertex 190.6893197732138 193.5620049977169 0
  endloop
endfacet
facet normal 0 0 -1
  outer loop
    vertex 193.9180678707161 375.2585664858062 0
    vertex 208.7354144898231 372.8552641116341 0
    vertex 196.1593430252838 361.3298080607181 0
  endloop
endfacet
facet normal 0 0 -1
  outer loop
    vertex 140.5161129670843 148.1297654318716 0
    vertex 136.5664085486811 110.2959036664385 0
    vertex 99.80389062478962 132.1222776088222 0
  endloop
endfacet
facet normal 0 0 -1
  outer loop
    vertex 42.71848955893375 550.6790975364684 0
    vertex 0 575.1999999990134 0
    vertex 31.62421269378248 606.0534369503886 0
  endloop
endfacet
facet normal 0 -0 -1
  outer loop
    vertex 175.4073249236761 161.2098245082642 0
    vertex 176.1569027828103 125.4483872468192 0
    vertex 140.5161129670843 148.1297654318716 0
  endloop
endfacet
facet normal -0 0 -1
  outer loop
    vertex 58.73291041473118 651.5467602927514 0
    vertex 53.86505866193902 625.8805092141345 0
    vertex 36.91200661004692 654.0282960085755 0
  endloop
endfacet
facet normal 0 0 -1
  outer loop
    vertex 188.2382990830488 401.8398849105751 0
    vertex 186.7764983391331 423.3962233087828 0
    vertex 198.698063190601 409.7532617057603 0
  endloop
endfacet
facet normal 0 0 -1
  outer loop
    vertex 193.9180678707161 375.2585664858062 0
    vertex 180.0898295509193 387.5981044662797 0
    vertex 195.0446680589918 390.0519042079278 0
  endloop
endfacet
facet normal 0 0 -1
  outer loop
    vertex 175.4073249236761 161.2098245082642 0
    vertex 200.1565874946978 142.5863407816875 0
    vertex 176.1569027828103 125.4483872468192 0
  endloop
endfacet
facet normal 0 -0 -1
  outer loop
    vertex 201.4921201058469 164.7229836620952 0
    vertex 222 154 0
    vertex 200.1565874946978 142.5863407816875 0
  endloop
endfacet
facet normal 0 -0 -1
  outer loop
    vertex 127.8690415975471 309.2121214518766 0
    vertex 129.7354623928913 268.4171644015099 0
    vertex 92.55962316024568 286.1459662868183 0
  endloop
endfacet
facet normal 0 0 -1
  outer loop
    vertex 127.8690415975471 309.2121214518766 0
    vertex 159.2168805984093 292.9964858429186 0
    vertex 129.7354623928913 268.4171644015099 0
  endloop
endfacet
facet normal 0 0 -1
  outer loop
    vertex 123.242792486524 433.292281761605 0
    vertex 122.7684060100015 397.5546094265704 0
    vertex 96.00697617245918 415.8945727586129 0
  endloop
endfacet
facet normal 0 -0 -1
  outer loop
    vertex 182.5792071002877 72.00117135438393 0
    vertex 206.0000000000719 41.50000000016583 0
    vertex 165.846366482353 36.79290926219827 0
  endloop
endfacet
facet normal 0 0 -1
  outer loop
    vertex 157.4084410771972 321.8995786770081 0
    vertex 181.127291588756 312.2232026918431 0
    vertex 159.2168805984093 292.9964858429186 0
  endloop
endfacet
facet normal -0 0 -1
  outer loop
    vertex 157.4084410771972 321.8995786770081 0
    vertex 127.8690415975471 309.2121214518766 0
    vertex 132.5296321512672 337.7155999853696 0
  endloop
endfacet
facet normal -0 0 -1
  outer loop
    vertex 175.4073249236761 161.2098245082642 0
    vertex 140.5161129670843 148.1297654318716 0
    vertex 144.507419955235 194.8459696872252 0
  endloop
endfacet
facet normal 0 0 -1
  outer loop
    vertex 159.2168805984093 292.9964858429186 0
    vertex 181.127291588756 312.2232026918431 0
    vertex 190.9651545030297 283.395911101464 0
  endloop
endfacet
facet normal 0 0 -1
  outer loop
    vertex 125.0963711295794 516.0472803961196 0
    vertex 144 515 0
    vertex 131.1475048006155 495.6456095639357 0
  endloop
endfacet
facet normal 0 0 -1
  outer loop
    vertex 175.4073249236761 161.2098245082642 0
    vertex 144.507419955235 194.8459696872252 0
    vertex 190.6893197732138 193.5620049977169 0
  endloop
endfacet
facet normal 0 0 -1
  outer loop
    vertex 131.1475048006155 495.6456095639357 0
    vertex 144 515 0
    vertex 146.5583341928721 500.0163227693822 0
  endloop
endfacet
facet normal 0 0 -1
  outer loop
    vertex 132 536 0
    vertex 125.0963711295794 516.0472803961196 0
    vertex 108.639509268656 531.0767120337567 0
  endloop
endfacet
facet normal 0 0 -1
  outer loop
    vertex 87.82936146527449 557.8158477196721 0
    vertex 75.75848907994767 517.9542430602889 0
    vertex 42.71848955893375 550.6790975364684 0
  endloop
endfacet
facet normal 0 0 -1
  outer loop
    vertex 201.4921201058469 164.7229836620952 0
    vertex 200.1565874946978 142.5863407816875 0
    vertex 175.4073249236761 161.2098245082642 0
  endloop
endfacet
facet normal 0 -0 -1
  outer loop
    vertex 125.0963711295794 516.0472803961196 0
    vertex 131.1475048006155 495.6456095639357 0
    vertex 104.3984114691058 496.6387474089907 0
  endloop
endfacet
facet normal -0 0 -1
  outer loop
    vertex 122.7684060100015 397.5546094265704 0
    vertex 89.2003253121766 381.2271391759119 0
    vertex 96.00697617245918 415.8945727586129 0
  endloop
endfacet
facet normal 0 -0 -1
  outer loop
    vertex 196.1593430252838 361.3298080607181 0
    vertex 198.883164588243 348.0245276542419 0
    vertex 183.5027096051627 349.6729595754933 0
  endloop
endfacet
facet normal -0 0 -1
  outer loop
    vertex 36.91200661004692 654.0282960085755 0
    vertex 0 647.0999999995068 0
    vertex 35.10234656262663 683.8586787740217 0
  endloop
endfacet
facet normal 0 -0 -1
  outer loop
    vertex 176.1569027828103 125.4483872468192 0
    vertex 197.8534219394024 100.4157205396234 0
    vertex 166.2886388634875 94.85499086906601 0
  endloop
endfacet
facet normal 0 0 -1
  outer loop
    vertex 136.5664085486811 110.2959036664385 0
    vertex 176.1569027828103 125.4483872468192 0
    vertex 166.2886388634875 94.85499086906601 0
  endloop
endfacet
facet normal -0 0 -1
  outer loop
    vertex 140.5161129670843 148.1297654318716 0
    vertex 99.80389062478962 132.1222776088222 0
    vertex 108.9775505324085 175.1166008409382 0
  endloop
endfacet
facet normal 0 0 -1
  outer loop
    vertex 89.2003253121766 381.2271391759119 0
    vertex 124.3099564285436 363.7684368790499 0
    vertex 94.45726148677051 337.4971280839574 0
  endloop
endfacet
facet normal 0 -0 -1
  outer loop
    vertex 124.3099564285436 363.7684368790499 0
    vertex 132.5296321512672 337.7155999853696 0
    vertex 94.45726148677051 337.4971280839574 0
  endloop
endfacet
facet normal -0 0 -1
  outer loop
    vertex 123.242792486524 433.292281761605 0
    vertex 96.00697617245918 415.8945727586129 0
    vertex 94.08028001902511 450.4652264009692 0
  endloop
endfacet
facet normal -0 0 -1
  outer loop
    vertex 203.8438886295301 399.5847903222481 0
    vertex 195.0446680589918 390.0519042079278 0
    vertex 188.2382990830488 401.8398849105751 0
  endloop
endfacet
facet normal -0 0 -1
  outer loop
    vertex 49.80441932833953 667.8824554100701 0
    vertex 36.91200661004692 654.0282960085755 0
    vertex 35.10234656262663 683.8586787740217 0
  endloop
endfacet
facet normal 0 -0 -1
  outer loop
    vertex 159.2168805984093 292.9964858429186 0
    vertex 190.9651545030297 283.395911101464 0
    vertex 158.5125831133265 263.0676441470323 0
  endloop
endfacet
facet normal 0 0 -1
  outer loop
    vertex 195.3918644552384 326.5627339445287 0
    vertex 205.4137405469027 323.8792837884423 0
    vertex 200.6585496824374 314.8152938165022 0
  endloop
endfacet
facet normal 0 0 -1
  outer loop
    vertex 129.7354623928913 268.4171644015099 0
    vertex 159.2168805984093 292.9964858429186 0
    vertex 158.5125831133265 263.0676441470323 0
  endloop
endfacet
facet normal 0 0 -1
  outer loop
    vertex 42.71848955893375 550.6790975364684 0
    vertex 75.75848907994767 517.9542430602889 0
    vertex 45.1860512927295 509.8208351485006 0
  endloop
endfacet
facet normal 0 0 -1
  outer loop
    vertex 144.507419955235 194.8459696872252 0
    vertex 140.5161129670843 148.1297654318716 0
    vertex 108.9775505324085 175.1166008409382 0
  endloop
endfacet
facet normal 0 0 -1
  outer loop
    vertex 227 170 0
    vertex 222 154 0
    vertex 201.4921201058469 164.7229836620952 0
  endloop
endfacet
facet normal 0 -0 -1
  outer loop
    vertex 49.80441932833953 667.8824554100701 0
    vertex 58.73291041473118 651.5467602927514 0
    vertex 36.91200661004692 654.0282960085755 0
  endloop
endfacet
facet normal 0 -0 -1
  outer loop
    vertex 53.86505866193902 625.8805092141345 0
    vertex 65.42744993055267 594.5424901789011 0
    vertex 31.62421269378248 606.0534369503886 0
  endloop
endfacet
facet normal 0 -0 -1
  outer loop
    vertex 136.5664085486811 110.2959036664385 0
    vertex 138.2872539462561 66.11377153806505 0
    vertex 103.6632983639453 92.86905963138094 0
  endloop
endfacet
facet normal 0 0 -1
  outer loop
    vertex 99.80389062478962 132.1222776088222 0
    vertex 136.5664085486811 110.2959036664385 0
    vertex 103.6632983639453 92.86905963138094 0
  endloop
endfacet
facet normal 0 0 -1
  outer loop
    vertex 139.9163644177771 236.4354072605524 0
    vertex 129.7354623928913 268.4171644015099 0
    vertex 158.5125831133265 263.0676441470323 0
  endloop
endfacet
facet normal -0 0 -1
  outer loop
    vertex 195.0446680589918 390.0519042079278 0
    vertex 180.0898295509193 387.5981044662797 0
    vertex 188.2382990830488 401.8398849105751 0
  endloop
endfacet
facet normal 0 0 -1
  outer loop
    vertex 177.2052323612562 367.5403875344158 0
    vertex 196.1593430252838 361.3298080607181 0
    vertex 183.5027096051627 349.6729595754933 0
  endloop
endfacet
facet normal -0 0 -1
  outer loop
    vertex 188.2382990830488 401.8398849105751 0
    vertex 180.0898295509193 387.5981044662797 0
    vertex 171.5105095213792 402.599076284515 0
  endloop
endfacet
facet normal 0 0 -1
  outer loop
    vertex 197.8534219394024 100.4157205396234 0
    vertex 182.5792071002877 72.00117135438393 0
    vertex 166.2886388634875 94.85499086906601 0
  endloop
endfacet
facet normal -0 0 -1
  outer loop
    vertex 198.883164588243 348.0245276542419 0
    vertex 192.6371206487431 338.2856729107368 0
    vertex 183.5027096051627 349.6729595754933 0
  endloop
endfacet
facet normal 0 0 -1
  outer loop
    vertex 56.21712441097836 102.7660974876297 0
    vertex 99.80389062478962 132.1222776088222 0
    vertex 103.6632983639453 92.86905963138094 0
  endloop
endfacet
facet normal 0 0 -1
  outer loop
    vertex 203.8438886295301 399.5847903222481 0
    vertex 188.2382990830488 401.8398849105751 0
    vertex 198.698063190601 409.7532617057603 0
  endloop
endfacet
facet normal -0 0 -1
  outer loop
    vertex 223.2323385025109 106.8374186283284 0
    vertex 197.8534219394024 100.4157205396234 0
    vertex 203.2607566398519 121.717787617851 0
  endloop
endfacet
facet normal 0 0 -1
  outer loop
    vertex 172.7290536545249 234.0932521287166 0
    vertex 139.9163644177771 236.4354072605524 0
    vertex 158.5125831133265 263.0676441470323 0
  endloop
endfacet
facet normal 0 -0 -1
  outer loop
    vertex 193 441 0
    vertex 201 436 0
    vertex 186.7764983391331 423.3962233087828 0
  endloop
endfacet
facet normal -0 0 -1
  outer loop
    vertex 138.2872539462561 66.11377153806505 0
    vertex 87.44181428902158 53.04724785594914 0
    vertex 103.6632983639453 92.86905963138094 0
  endloop
endfacet
facet normal -0 0 -1
  outer loop
    vertex 192.6371206487431 338.2856729107368 0
    vertex 177.9122747909817 332.8328501792791 0
    vertex 183.5027096051627 349.6729595754933 0
  endloop
endfacet
facet normal -0 0 -1
  outer loop
    vertex 161 500 0
    vertex 159 491 0
    vertex 146.5583341928721 500.0163227693822 0
  endloop
endfacet
facet normal 0 0 -1
  outer loop
    vertex 0 647.0999999995068 0
    vertex 0 719 0
    vertex 35.10234656262663 683.8586787740217 0
  endloop
endfacet
facet normal 0 -0 -1
  outer loop
    vertex 159 491 0
    vertex 193 441 0
    vertex 156.7433651465552 446.4465030506657 0
  endloop
endfacet
facet normal 0 -0 -1
  outer loop
    vertex 214.906111682857 355.6231119814377 0
    vertex 232 319 0
    vertex 212.0260649650059 336.7218069939676 0
  endloop
endfacet
facet normal 0 0 -1
  outer loop
    vertex 218.9045324798383 133.3010708927964 0
    vertex 238 152 0
    vertex 223.2323385025109 106.8374186283284 0
  endloop
endfacet
facet normal 0 0 -1
  outer loop
    vertex 0 719 0
    vertex 48 717 0
    vertex 35.10234656262663 683.8586787740217 0
  endloop
endfacet
facet normal 0 -0 -1
  outer loop
    vertex 48 717 0
    vertex 51 701 0
    vertex 35.10234656262663 683.8586787740217 0
  endloop
endfacet
facet normal -0 0 -1
  outer loop
    vertex 65 685 0
    vertex 60 681 0
    vertex 51 701 0
  endloop
endfacet
facet normal -0 0 -1
  outer loop
    vertex 60 681 0
    vertex 49.80441932833953 667.8824554100701 0
    vertex 35.10234656262663 683.8586787740217 0
  endloop
endfacet
facet normal -0 0 -1
  outer loop
    vertex 133 545 0
    vertex 132 536 0
    vertex 122 552 0
  endloop
endfacet
facet normal -0 0 -1
  outer loop
    vertex 222 411 0
    vertex 217 407 0
    vertex 208 419 0
  endloop
endfacet
facet normal 0 -0 -1
  outer loop
    vertex 231 393 0
    vertex 232 319 0
    vertex 214.906111682857 355.6231119814377 0
  endloop
endfacet
facet normal 0 -0 -1
  outer loop
    vertex 209.1332551607447 385.9781748547298 0
    vertex 231 393 0
    vertex 208.7354144898231 372.8552641116341 0
  endloop
endfacet
facet normal 0 0 -1
  outer loop
    vertex 208.7354144898231 372.8552641116341 0
    vertex 231 393 0
    vertex 214.906111682857 355.6231119814377 0
  endloop
endfacet
facet normal 0 -0 -1
  outer loop
    vertex 212.0260649650059 336.7218069939676 0
    vertex 213 316 0
    vertex 205.4137405469027 323.8792837884423 0
  endloop
endfacet
facet normal 0 -0 -1
  outer loop
    vertex 212 312 0
    vertex 219 303 0
    vertex 190.9651545030297 283.395911101464 0
  endloop
endfacet
facet normal -0 0 -1
  outer loop
    vertex 212 312 0
    vertex 190.9651545030297 283.395911101464 0
    vertex 200.6585496824374 314.8152938165022 0
  endloop
endfacet
facet normal 0 -0 -1
  outer loop
    vertex 223 236.5000000000002 0
    vertex 227 170 0
    vertex 190.6893197732138 193.5620049977169 0
  endloop
endfacet
facet normal -0 0 -1
  outer loop
    vertex 227 170 0
    vertex 201.4921201058469 164.7229836620952 0
    vertex 190.6893197732138 193.5620049977169 0
  endloop
endfacet
facet normal 0 0 -1
  outer loop
    vertex 227 82 0
    vertex 224 83 0
    vertex 223.2323385025109 106.8374186283284 0
  endloop
endfacet
endsolid Created by Gmsh
