solid Created by Gmsh
facet normal 0 0 1
  outer loop
    vertex 665 425 0
    vertex 662.7020439554816 375.1312403863378 0
    vertex 683 396 0
  endloop
endfacet
facet normal 0 0 1
  outer loop
    vertex 717.6325504348185 343.3060795924896 0
    vertex 680.9837442076993 338.8272973960873 0
    vertex 685 294 0
  endloop
endfacet
facet normal 0 -0 1
  outer loop
    vertex 617 148 0
    vertex 637.25 212.5 0
    vertex 590 221 0
  endloop
endfacet
facet normal -0 0 1
  outer loop
    vertex 634 380 0
    vertex 662.7020439554816 375.1312403863378 0
    vertex 665 425 0
  endloop
endfacet
facet normal 0 0 1
  outer loop
    vertex 652 276 0
    vertex 637.25 212.5 0
    vertex 690 205 0
  endloop
endfacet
facet normal 0 -0 1
  outer loop
    vertex 650.2824382267017 318.3988632510468 0
    vertex 662.7020439554816 375.1312403863378 0
    vertex 629.7339633653714 350.8117162604904 0
  endloop
endfacet
facet normal 0 0 1
  outer loop
    vertex 690 205 0
    vertex 637.25 212.5 0
    vertex 617 148 0
  endloop
endfacet
facet normal 0 0 1
  outer loop
    vertex 680.9837442076993 338.8272973960873 0
    vertex 662.7020439554816 375.1312403863378 0
    vertex 650.2824382267017 318.3988632510468 0
  endloop
endfacet
facet normal -0 0 1
  outer loop
    vertex 558 383 0
    vertex 604.8720903792455 369.4098102272321 0
    vertex 615 418 0
  endloop
endfacet
facet normal 0 0 1
  outer loop
    vertex 629.7339633653714 350.8117162604904 0
    vertex 662.7020439554816 375.1312403863378 0
    vertex 634 380 0
  endloop
endfacet
facet normal 0 0 1
  outer loop
    vertex 691.4196492517926 365.141250394323 0
    vertex 662.7020439554816 375.1312403863378 0
    vertex 680.9837442076993 338.8272973960873 0
  endloop
endfacet
facet normal 0 0 1
  outer loop
    vertex 652 276 0
    vertex 650.2824382267017 318.3988632510468 0
    vertex 606 307 0
  endloop
endfacet
facet normal 0 0 1
  outer loop
    vertex 775 325 0
    vertex 748.7054564656224 367.2074456618335 0
    vertex 717.6325504348185 343.3060795924896 0
  endloop
endfacet
facet normal 0 0 1
  outer loop
    vertex 784 385 0
    vertex 748.7054564656224 367.2074456618335 0
    vertex 775 325 0
  endloop
endfacet
facet normal 0 0 1
  outer loop
    vertex 693 261 0
    vertex 685 294 0
    vertex 652 276 0
  endloop
endfacet
facet normal 0 0 1
  outer loop
    vertex 743 415 0
    vertex 748.7054564656224 367.2074456618335 0
    vertex 784 385 0
  endloop
endfacet
facet normal -0 0 1
  outer loop
    vertex 717.0158293215604 376.1235278842224 0
    vertex 748.7054564656224 367.2074456618335 0
    vertex 743 415 0
  endloop
endfacet
facet normal 0 0 1
  outer loop
    vertex 615 418 0
    vertex 604.8720903792455 369.4098102272321 0
    vertex 634 380 0
  endloop
endfacet
facet normal 0 0 1
  outer loop
    vertex 683 396 0
    vertex 691.4196492517926 365.141250394323 0
    vertex 717.0158293215604 376.1235278842224 0
  endloop
endfacet
facet normal 0 0 1
  outer loop
    vertex 685 294 0
    vertex 650.2824382267017 318.3988632510468 0
    vertex 652 276 0
  endloop
endfacet
facet normal 0 0 1
  outer loop
    vertex 650.2824382267017 318.3988632510468 0
    vertex 629.7339633653714 350.8117162604904 0
    vertex 606 307 0
  endloop
endfacet
facet normal 0 0 1
  outer loop
    vertex 717.0158293215604 376.1235278842224 0
    vertex 691.4196492517926 365.141250394323 0
    vertex 717.6325504348185 343.3060795924896 0
  endloop
endfacet
facet normal 0 -0 1
  outer loop
    vertex 717.6325504348185 343.3060795924896 0
    vertex 748.7054564656224 367.2074456618335 0
    vertex 717.0158293215604 376.1235278842224 0
  endloop
endfacet
facet normal 0 0 1
  outer loop
    vertex 685 294 0
    vertex 680.9837442076993 338.8272973960873 0
    vertex 650.2824382267017 318.3988632510468 0
  endloop
endfacet
facet normal 0 0 1
  outer loop
    vertex 634 380 0
    vertex 604.8720903792455 369.4098102272321 0
    vertex 629.7339633653714 350.8117162604904 0
  endloop
endfacet
facet normal 0 0 1
  outer loop
    vertex 683 396 0
    vertex 662.7020439554816 375.1312403863378 0
    vertex 691.4196492517926 365.141250394323 0
  endloop
endfacet
facet normal 0 0 1
  outer loop
    vertex 717.6325504348185 343.3060795924896 0
    vertex 691.4196492517926 365.141250394323 0
    vertex 680.9837442076993 338.8272973960873 0
  endloop
endfacet
facet normal 0 0 1
  outer loop
    vertex 629.7339633653714 350.8117162604904 0
    vertex 604.8720903792455 369.4098102272321 0
    vertex 606 307 0
  endloop
endfacet
facet normal -0 0 1
  outer loop
    vertex 551 207 0
    vertex 617 148 0
    vertex 590 221 0
  endloop
endfacet
facet normal 0 0 1
  outer loop
    vertex 590 221 0
    vertex 652 276 0
    vertex 606 307 0
  endloop
endfacet
facet normal -0 0 1
  outer loop
    vertex 590 221 0
    vertex 637.25 212.5 0
    vertex 652 276 0
  endloop
endfacet
facet normal 0 0 1
  outer loop
    vertex 606 307 0
    vertex 604.8720903792455 369.4098102272321 0
    vertex 558 383 0
  endloop
endfacet
facet normal -0 0 1
  outer loop
    vertex 683 396 0
    vertex 717.0158293215604 376.1235278842224 0
    vertex 743 415 0
  endloop
endfacet
facet normal 0 0 1
  outer loop
    vertex 775 325 0
    vertex 717.6325504348185 343.3060795924896 0
    vertex 685 294 0
  endloop
endfacet
endsolid Created by Gmsh
