solid Created by Gmsh
facet normal 0 0 1
  outer loop
    vertex 0.3433271067637141 0.1837122924000686 0
    vertex 0.2989701956010997 0.1842580463498952 0
    vertex 0.3009750144735189 0.1403779430287573 0
  endloop
endfacet
facet normal 0 0 1
  outer loop
    vertex 0.3444444444440286 0.1384900179460248 0
    vertex 0.3433271067637141 0.1837122924000686 0
    vertex 0.3009750144735189 0.1403779430287573 0
  endloop
endfacet
facet normal 0 0 1
  outer loop
    vertex 0.3875597908868711 0.1832948469851512 0
    vertex 0.3444444444440286 0.1384900179460248 0
    vertex 0.3888888888885869 0.1388686664696969 0
  endloop
endfacet
facet normal 0 0 1
  outer loop
    vertex 0.3433271067637141 0.1837122924000686 0
    vertex 0.3444444444440286 0.1384900179460248 0
    vertex 0.3875597908868711 0.1832948469851512 0
  endloop
endfacet
facet normal 0 -0 1
  outer loop
    vertex 0.2099072899938051 0.1393815199240218 0
    vertex 0.2104273840129234 0.185261656180262 0
    vertex 0.1712509268476254 0.1801383013019536 0
  endloop
endfacet
facet normal 0 0 1
  outer loop
    vertex 0.1629090443482863 0.1343083102020777 0
    vertex 0.2099072899938051 0.1393815199240218 0
    vertex 0.1712509268476254 0.1801383013019536 0
  endloop
endfacet
facet normal 0 0 1
  outer loop
    vertex 0.3875597908868711 0.1832948469851512 0
    vertex 0.3888888888885869 0.1388686664696969 0
    vertex 0.4280947883262283 0.1797298216903948 0
  endloop
endfacet
facet normal -0 0 1
  outer loop
    vertex 0.3888888888885869 0.1388686664696969 0
    vertex 0.4370257056017848 0.134409090423079 0
    vertex 0.4280947883262283 0.1797298216903948 0
  endloop
endfacet
facet normal 0 -0 1
  outer loop
    vertex 0.408210971029738 0.2210663401691183 0
    vertex 0.4348341267290508 0.2593049447720932 0
    vertex 0.3885270663754343 0.2606601616415645 0
  endloop
endfacet
facet normal 0 0 1
  outer loop
    vertex 0.2104273840129234 0.185261656180262 0
    vertex 0.1911374176664355 0.2215603522455913 0
    vertex 0.1712509268476254 0.1801383013019536 0
  endloop
endfacet
facet normal -0 0 1
  outer loop
    vertex 0.3660147080641912 0.2222994752450364 0
    vertex 0.408210971029738 0.2210663401691183 0
    vertex 0.3885270663754343 0.2606601616415645 0
  endloop
endfacet
facet normal 0 0 1
  outer loop
    vertex 0.3443248146512337 0.261290209663139 0
    vertex 0.3660147080641912 0.2222994752450364 0
    vertex 0.3885270663754343 0.2606601616415645 0
  endloop
endfacet
facet normal 0 0 1
  outer loop
    vertex 0.408210971029738 0.2210663401691183 0
    vertex 0.3875597908868711 0.1832948469851512 0
    vertex 0.4280947883262283 0.1797298216903948 0
  endloop
endfacet
facet normal 0 -0 1
  outer loop
    vertex 0.4111111111108644 0.1 0
    vertex 0.4370257056017848 0.134409090423079 0
    vertex 0.3888888888885869 0.1388686664696969 0
  endloop
endfacet
facet normal 0 0 1
  outer loop
    vertex 0.3443248146512337 0.261290209663139 0
    vertex 0.3216327111575721 0.22254177210313 0
    vertex 0.3660147080641912 0.2222994752450364 0
  endloop
endfacet
facet normal 0 0 1
  outer loop
    vertex 0.3666666666663071 0.1 0
    vertex 0.4111111111108644 0.1 0
    vertex 0.3888888888885869 0.1388686664696969 0
  endloop
endfacet
facet normal 0 0 1
  outer loop
    vertex 0.1888888888891406 0.3 0
    vertex 0.1444444444445732 0.3 0
    vertex 0.1649225091846891 0.2596732673206576 0
  endloop
endfacet
facet normal 0 0 1
  outer loop
    vertex 0.4111111111108644 0.1 0
    vertex 0.4555555555554265 0.1 0
    vertex 0.4370257056017848 0.134409090423079 0
  endloop
endfacet
facet normal 0 0 1
  outer loop
    vertex 0.4555555555556785 0.3 0
    vertex 0.411111111111357 0.3 0
    vertex 0.4348341267290508 0.2593049447720932 0
  endloop
endfacet
facet normal 0 0 1
  outer loop
    vertex 0.1444444444443692 0.1 0
    vertex 0.1888888888886762 0.1 0
    vertex 0.1629090443482863 0.1343083102020777 0
  endloop
endfacet
facet normal 0 0 1
  outer loop
    vertex 0.2553398154695391 0.2615324837499681 0
    vertex 0.2107193963039718 0.2613961378750345 0
    vertex 0.2328861588448519 0.2232798962774074 0
  endloop
endfacet
facet normal 0 -0 1
  outer loop
    vertex 0.3216327111575721 0.22254177210313 0
    vertex 0.3443248146512337 0.261290209663139 0
    vertex 0.2997588102692059 0.2613749163819632 0
  endloop
endfacet
facet normal 0 -0 1
  outer loop
    vertex 0.2333333333329898 0.1 0
    vertex 0.2554410027930945 0.1371783508188331 0
    vertex 0.2099072899938051 0.1393815199240218 0
  endloop
endfacet
facet normal 0 0 1
  outer loop
    vertex 0.2553398154695391 0.2615324837499681 0
    vertex 0.2333333333337057 0.3 0
    vertex 0.2107193963039718 0.2613961378750345 0
  endloop
endfacet
facet normal 0 0 1
  outer loop
    vertex 0.3666666666670355 0.3 0
    vertex 0.3443248146512337 0.261290209663139 0
    vertex 0.3885270663754343 0.2606601616415645 0
  endloop
endfacet
facet normal -0 0 1
  outer loop
    vertex 0.3444444444440286 0.1384900179460248 0
    vertex 0.3666666666663071 0.1 0
    vertex 0.3888888888885869 0.1388686664696969 0
  endloop
endfacet
facet normal -0 0 1
  outer loop
    vertex 0.1629090443482863 0.1343083102020777 0
    vertex 0.1888888888886762 0.1 0
    vertex 0.2099072899938051 0.1393815199240218 0
  endloop
endfacet
facet normal 0 0 1
  outer loop
    vertex 0.1888888888891406 0.3 0
    vertex 0.1649225091846891 0.2596732673206576 0
    vertex 0.2107193963039718 0.2613961378750345 0
  endloop
endfacet
facet normal 0 0 1
  outer loop
    vertex 0.4348341267290508 0.2593049447720932 0
    vertex 0.411111111111357 0.3 0
    vertex 0.3885270663754343 0.2606601616415645 0
  endloop
endfacet
facet normal 0 -0 1
  outer loop
    vertex 0.2104273840129234 0.185261656180262 0
    vertex 0.2328861588448519 0.2232798962774074 0
    vertex 0.1911374176664355 0.2215603522455913 0
  endloop
endfacet
facet normal 0 0 1
  outer loop
    vertex 0.3660147080641912 0.2222994752450364 0
    vertex 0.3875597908868711 0.1832948469851512 0
    vertex 0.408210971029738 0.2210663401691183 0
  endloop
endfacet
facet normal 0 0 1
  outer loop
    vertex 0.2107193963039718 0.2613961378750345 0
    vertex 0.1649225091846891 0.2596732673206576 0
    vertex 0.1911374176664355 0.2215603522455913 0
  endloop
endfacet
facet normal 0 0 1
  outer loop
    vertex 0.3660147080641912 0.2222994752450364 0
    vertex 0.3433271067637141 0.1837122924000686 0
    vertex 0.3875597908868711 0.1832948469851512 0
  endloop
endfacet
facet normal 0 0 1
  outer loop
    vertex 0.3222222222227141 0.3 0
    vertex 0.2777777777782708 0.3 0
    vertex 0.2997588102692059 0.2613749163819632 0
  endloop
endfacet
facet normal 0 0 1
  outer loop
    vertex 0.2328861588448519 0.2232798962774074 0
    vertex 0.2107193963039718 0.2613961378750345 0
    vertex 0.1911374176664355 0.2215603522455913 0
  endloop
endfacet
facet normal 0 0 1
  outer loop
    vertex 0.2546797239451649 0.1848090090492657 0
    vertex 0.2328861588448519 0.2232798962774074 0
    vertex 0.2104273840129234 0.185261656180262 0
  endloop
endfacet
facet normal 0 0 1
  outer loop
    vertex 0.3216327111575721 0.22254177210313 0
    vertex 0.3433271067637141 0.1837122924000686 0
    vertex 0.3660147080641912 0.2222994752450364 0
  endloop
endfacet
facet normal 0 0 1
  outer loop
    vertex 0.3443248146512337 0.261290209663139 0
    vertex 0.3222222222227141 0.3 0
    vertex 0.2997588102692059 0.2613749163819632 0
  endloop
endfacet
facet normal 0 0 1
  outer loop
    vertex 0.2777777777782708 0.3 0
    vertex 0.2553398154695391 0.2615324837499681 0
    vertex 0.2997588102692059 0.2613749163819632 0
  endloop
endfacet
facet normal -0 0 1
  outer loop
    vertex 0.2772555203359061 0.2228850327755422 0
    vertex 0.3216327111575721 0.22254177210313 0
    vertex 0.2997588102692059 0.2613749163819632 0
  endloop
endfacet
facet normal 0 0 1
  outer loop
    vertex 0.2553398154695391 0.2615324837499681 0
    vertex 0.2772555203359061 0.2228850327755422 0
    vertex 0.2997588102692059 0.2613749163819632 0
  endloop
endfacet
facet normal 0 0 1
  outer loop
    vertex 0.1888888888886762 0.1 0
    vertex 0.2333333333329898 0.1 0
    vertex 0.2099072899938051 0.1393815199240218 0
  endloop
endfacet
facet normal 0 0 1
  outer loop
    vertex 0.2333333333337057 0.3 0
    vertex 0.1888888888891406 0.3 0
    vertex 0.2107193963039718 0.2613961378750345 0
  endloop
endfacet
facet normal 0 0 1
  outer loop
    vertex 0.411111111111357 0.3 0
    vertex 0.3666666666670355 0.3 0
    vertex 0.3885270663754343 0.2606601616415645 0
  endloop
endfacet
facet normal 0 0 1
  outer loop
    vertex 0.2553398154695391 0.2615324837499681 0
    vertex 0.2328861588448519 0.2232798962774074 0
    vertex 0.2772555203359061 0.2228850327755422 0
  endloop
endfacet
facet normal 0 0 1
  outer loop
    vertex 0.2772555203359061 0.2228850327755422 0
    vertex 0.2328861588448519 0.2232798962774074 0
    vertex 0.2546797239451649 0.1848090090492657 0
  endloop
endfacet
facet normal 0 0 1
  outer loop
    vertex 0.2777777777773034 0.1 0
    vertex 0.3222222222217499 0.1 0
    vertex 0.3009750144735189 0.1403779430287573 0
  endloop
endfacet
facet normal -0 0 1
  outer loop
    vertex 0.2554410027930945 0.1371783508188331 0
    vertex 0.2777777777773034 0.1 0
    vertex 0.3009750144735189 0.1403779430287573 0
  endloop
endfacet
facet normal 0 0 1
  outer loop
    vertex 0.2777777777782708 0.3 0
    vertex 0.2333333333337057 0.3 0
    vertex 0.2553398154695391 0.2615324837499681 0
  endloop
endfacet
facet normal 0 0 1
  outer loop
    vertex 0.3222222222217499 0.1 0
    vertex 0.3666666666663071 0.1 0
    vertex 0.3444444444440286 0.1384900179460248 0
  endloop
endfacet
facet normal 0 -0 1
  outer loop
    vertex 0.3222222222217499 0.1 0
    vertex 0.3444444444440286 0.1384900179460248 0
    vertex 0.3009750144735189 0.1403779430287573 0
  endloop
endfacet
facet normal 0 0 1
  outer loop
    vertex 0.3666666666670355 0.3 0
    vertex 0.3222222222227141 0.3 0
    vertex 0.3443248146512337 0.261290209663139 0
  endloop
endfacet
facet normal 0 0 1
  outer loop
    vertex 0.2333333333329898 0.1 0
    vertex 0.2777777777773034 0.1 0
    vertex 0.2554410027930945 0.1371783508188331 0
  endloop
endfacet
facet normal 0 0 1
  outer loop
    vertex 0.3216327111575721 0.22254177210313 0
    vertex 0.2989701956010997 0.1842580463498952 0
    vertex 0.3433271067637141 0.1837122924000686 0
  endloop
endfacet
facet normal 0 0 1
  outer loop
    vertex 0.2772555203359061 0.2228850327755422 0
    vertex 0.2989701956010997 0.1842580463498952 0
    vertex 0.3216327111575721 0.22254177210313 0
  endloop
endfacet
facet normal 0 0 1
  outer loop
    vertex 0.2772555203359061 0.2228850327755422 0
    vertex 0.2546797239451649 0.1848090090492657 0
    vertex 0.2989701956010997 0.1842580463498952 0
  endloop
endfacet
facet normal 0 -0 1
  outer loop
    vertex 0.1712509268476254 0.1801383013019536 0
    vertex 0.1911374176664355 0.2215603522455913 0
    vertex 0.1581518969937698 0.2199926584690754 0
  endloop
endfacet
facet normal 0 -0 1
  outer loop
    vertex 0.5 0.1799999999997906 0
    vertex 0.5 0.2199999999997896 0
    vertex 0.4673283257873167 0.1999604598590854 0
  endloop
endfacet
facet normal 0 0 1
  outer loop
    vertex 0.1 0.2200000000002214 0
    vertex 0.1 0.1800000000002246 0
    vertex 0.1325793190397231 0.1999585259701613 0
  endloop
endfacet
facet normal 0 -0 1
  outer loop
    vertex 0.5 0.1399999999999089 0
    vertex 0.5 0.1799999999997906 0
    vertex 0.4661965717069034 0.1599999999998498 0
  endloop
endfacet
facet normal 0 0 1
  outer loop
    vertex 0.1 0.1800000000002246 0
    vertex 0.1 0.1400000000001149 0
    vertex 0.1338034282930727 0.1600000000001698 0
  endloop
endfacet
facet normal 0 0 1
  outer loop
    vertex 0.1 0.2600000000001106 0
    vertex 0.1 0.2200000000002214 0
    vertex 0.1308693122303759 0.2386328455070131 0
  endloop
endfacet
facet normal 0 -0 1
  outer loop
    vertex 0.5 0.2199999999997896 0
    vertex 0.5 0.2599999999999014 0
    vertex 0.4689823793866624 0.2385737146194912 0
  endloop
endfacet
facet normal 0 0 1
  outer loop
    vertex 0.1325793190397231 0.1999585259701613 0
    vertex 0.1 0.1800000000002246 0
    vertex 0.1338034282930727 0.1600000000001698 0
  endloop
endfacet
facet normal 0 0 1
  outer loop
    vertex 0.4673283257873167 0.1999604598590854 0
    vertex 0.5 0.2199999999997896 0
    vertex 0.4689823793866624 0.2385737146194912 0
  endloop
endfacet
facet normal 0 0 1
  outer loop
    vertex 0.5 0.1799999999997906 0
    vertex 0.4673283257873167 0.1999604598590854 0
    vertex 0.4661965717069034 0.1599999999998498 0
  endloop
endfacet
facet normal -0 0 1
  outer loop
    vertex 0.1 0.2200000000002214 0
    vertex 0.1325793190397231 0.1999585259701613 0
    vertex 0.1308693122303759 0.2386328455070131 0
  endloop
endfacet
facet normal 0 0 1
  outer loop
    vertex 0.408210971029738 0.2210663401691183 0
    vertex 0.4280947883262283 0.1797298216903948 0
    vertex 0.4414901182517992 0.2197270562220366 0
  endloop
endfacet
facet normal 0 -0 1
  outer loop
    vertex 0.4661965717069034 0.1599999999998498 0
    vertex 0.4673283257873167 0.1999604598590854 0
    vertex 0.4280947883262283 0.1797298216903948 0
  endloop
endfacet
facet normal 0 0 1
  outer loop
    vertex 0.1325793190397231 0.1999585259701613 0
    vertex 0.1338034282930727 0.1600000000001698 0
    vertex 0.1712509268476254 0.1801383013019536 0
  endloop
endfacet
facet normal 0 0 1
  outer loop
    vertex 0.4348341267290508 0.2593049447720932 0
    vertex 0.408210971029738 0.2210663401691183 0
    vertex 0.4414901182517992 0.2197270562220366 0
  endloop
endfacet
facet normal 0 0 1
  outer loop
    vertex 0.1 0.1 0
    vertex 0.1444444444443692 0.1 0
    vertex 0.1297214405788024 0.1283324648407059 0
  endloop
endfacet
facet normal 0 0 1
  outer loop
    vertex 0.4555555555554265 0.1 0
    vertex 0.5 0.1 0
    vertex 0.4702785594212854 0.128332464840473 0
  endloop
endfacet
facet normal 0 0 1
  outer loop
    vertex 0.1444444444445732 0.3 0
    vertex 0.1 0.3 0
    vertex 0.1285255924310087 0.2716630261638363 0
  endloop
endfacet
facet normal 0 0 1
  outer loop
    vertex 0.5 0.3 0
    vertex 0.4555555555556785 0.3 0
    vertex 0.4718744123342783 0.2715757318782971 0
  endloop
endfacet
facet normal 0 -0 1
  outer loop
    vertex 0.4370257056017848 0.134409090423079 0
    vertex 0.4661965717069034 0.1599999999998498 0
    vertex 0.4280947883262283 0.1797298216903948 0
  endloop
endfacet
facet normal -0 0 1
  outer loop
    vertex 0.1338034282930727 0.1600000000001698 0
    vertex 0.1629090443482863 0.1343083102020777 0
    vertex 0.1712509268476254 0.1801383013019536 0
  endloop
endfacet
facet normal 0 0 1
  outer loop
    vertex 0.1 0.1400000000001149 0
    vertex 0.1 0.1 0
    vertex 0.1297214405788024 0.1283324648407059 0
  endloop
endfacet
facet normal 0 -0 1
  outer loop
    vertex 0.5 0.2599999999999014 0
    vertex 0.5 0.3 0
    vertex 0.4718744123342783 0.2715757318782971 0
  endloop
endfacet
facet normal 0 -0 1
  outer loop
    vertex 0.5 0.1 0
    vertex 0.5 0.1399999999999089 0
    vertex 0.4702785594212854 0.128332464840473 0
  endloop
endfacet
facet normal 0 0 1
  outer loop
    vertex 0.1 0.3 0
    vertex 0.1 0.2600000000001106 0
    vertex 0.1285255924310087 0.2716630261638363 0
  endloop
endfacet
facet normal 0 0 1
  outer loop
    vertex 0.2104273840129234 0.185261656180262 0
    vertex 0.2099072899938051 0.1393815199240218 0
    vertex 0.2323168876536538 0.1618980188784974 0
  endloop
endfacet
facet normal 0 0 1
  outer loop
    vertex 0.4280947883262283 0.1797298216903948 0
    vertex 0.4673283257873167 0.1999604598590854 0
    vertex 0.4414901182517992 0.2197270562220366 0
  endloop
endfacet
facet normal -0 0 1
  outer loop
    vertex 0.1325793190397231 0.1999585259701613 0
    vertex 0.1712509268476254 0.1801383013019536 0
    vertex 0.1581518969937698 0.2199926584690754 0
  endloop
endfacet
facet normal 0 0 1
  outer loop
    vertex 0.1911374176664355 0.2215603522455913 0
    vertex 0.1649225091846891 0.2596732673206576 0
    vertex 0.1581518969937698 0.2199926584690754 0
  endloop
endfacet
facet normal 0 0 1
  outer loop
    vertex 0.4370257056017848 0.134409090423079 0
    vertex 0.4555555555554265 0.1 0
    vertex 0.4702785594212854 0.128332464840473 0
  endloop
endfacet
facet normal 0 0 1
  outer loop
    vertex 0.1649225091846891 0.2596732673206576 0
    vertex 0.1444444444445732 0.3 0
    vertex 0.1285255924310087 0.2716630261638363 0
  endloop
endfacet
facet normal 0 -0 1
  outer loop
    vertex 0.1444444444443692 0.1 0
    vertex 0.1629090443482863 0.1343083102020777 0
    vertex 0.1297214405788024 0.1283324648407059 0
  endloop
endfacet
facet normal 0 0 1
  outer loop
    vertex 0.4555555555556785 0.3 0
    vertex 0.4348341267290508 0.2593049447720932 0
    vertex 0.4718744123342783 0.2715757318782971 0
  endloop
endfacet
facet normal 0 0 1
  outer loop
    vertex 0.4689823793866624 0.2385737146194912 0
    vertex 0.4348341267290508 0.2593049447720932 0
    vertex 0.4414901182517992 0.2197270562220366 0
  endloop
endfacet
facet normal 0 0 1
  outer loop
    vertex 0.1649225091846891 0.2596732673206576 0
    vertex 0.1308693122303759 0.2386328455070131 0
    vertex 0.1581518969937698 0.2199926584690754 0
  endloop
endfacet
facet normal 0 0 1
  outer loop
    vertex 0.3009750144735189 0.1403779430287573 0
    vertex 0.2989701956010997 0.1842580463498952 0
    vertex 0.2765453284113952 0.1620546830967128 0
  endloop
endfacet
facet normal -0 0 1
  outer loop
    vertex 0.2099072899938051 0.1393815199240218 0
    vertex 0.2554410027930945 0.1371783508188331 0
    vertex 0.2323168876536538 0.1618980188784974 0
  endloop
endfacet
facet normal 0 0 1
  outer loop
    vertex 0.2546797239451649 0.1848090090492657 0
    vertex 0.2104273840129234 0.185261656180262 0
    vertex 0.2323168876536538 0.1618980188784974 0
  endloop
endfacet
facet normal 0 0 1
  outer loop
    vertex 0.2554410027930945 0.1371783508188331 0
    vertex 0.3009750144735189 0.1403779430287573 0
    vertex 0.2765453284113952 0.1620546830967128 0
  endloop
endfacet
facet normal 0 0 1
  outer loop
    vertex 0.4661965717069034 0.1599999999998498 0
    vertex 0.4370257056017848 0.134409090423079 0
    vertex 0.4702785594212854 0.128332464840473 0
  endloop
endfacet
facet normal 0 -0 1
  outer loop
    vertex 0.1308693122303759 0.2386328455070131 0
    vertex 0.1649225091846891 0.2596732673206576 0
    vertex 0.1285255924310087 0.2716630261638363 0
  endloop
endfacet
facet normal 0 0 1
  outer loop
    vertex 0.1629090443482863 0.1343083102020777 0
    vertex 0.1338034282930727 0.1600000000001698 0
    vertex 0.1297214405788024 0.1283324648407059 0
  endloop
endfacet
facet normal -0 0 1
  outer loop
    vertex 0.4348341267290508 0.2593049447720932 0
    vertex 0.4689823793866624 0.2385737146194912 0
    vertex 0.4718744123342783 0.2715757318782971 0
  endloop
endfacet
facet normal -0 0 1
  outer loop
    vertex 0.2323168876536538 0.1618980188784974 0
    vertex 0.2554410027930945 0.1371783508188331 0
    vertex 0.2765453284113952 0.1620546830967128 0
  endloop
endfacet
facet normal 0 0 1
  outer loop
    vertex 0.2546797239451649 0.1848090090492657 0
    vertex 0.2323168876536538 0.1618980188784974 0
    vertex 0.2765453284113952 0.1620546830967128 0
  endloop
endfacet
facet normal 0 0 1
  outer loop
    vertex 0.2989701956010997 0.1842580463498952 0
    vertex 0.2546797239451649 0.1848090090492657 0
    vertex 0.2765453284113952 0.1620546830967128 0
  endloop
endfacet
facet normal 0 0 1
  outer loop
    vertex 0.1338034282930727 0.1600000000001698 0
    vertex 0.1 0.1400000000001149 0
    vertex 0.1297214405788024 0.1283324648407059 0
  endloop
endfacet
facet normal 0 0 1
  outer loop
    vertex 0.5 0.1399999999999089 0
    vertex 0.4661965717069034 0.1599999999998498 0
    vertex 0.4702785594212854 0.128332464840473 0
  endloop
endfacet
facet normal -0 0 1
  outer loop
    vertex 0.1 0.2600000000001106 0
    vertex 0.1308693122303759 0.2386328455070131 0
    vertex 0.1285255924310087 0.2716630261638363 0
  endloop
endfacet
facet normal 0 0 1
  outer loop
    vertex 0.4689823793866624 0.2385737146194912 0
    vertex 0.5 0.2599999999999014 0
    vertex 0.4718744123342783 0.2715757318782971 0
  endloop
endfacet
facet normal 0 -0 1
  outer loop
    vertex 0.4673283257873167 0.1999604598590854 0
    vertex 0.4689823793866624 0.2385737146194912 0
    vertex 0.4414901182517992 0.2197270562220366 0
  endloop
endfacet
facet normal 0 0 1
  outer loop
    vertex 0.1308693122303759 0.2386328455070131 0
    vertex 0.1325793190397231 0.1999585259701613 0
    vertex 0.1581518969937698 0.2199926584690754 0
  endloop
endfacet
endsolid Created by Gmsh
